___________________________________________________________________________________

Plot: Po and his friends fight to stop the peacock,Shen from conquering China with
 
a deadly new weapon, but first the Dragon Warrior must come to terms with his 

past. .
___________________________________________________________________________________

IMDb:

Rating : 7.3

Link   : http://www.imdb.com/title/tt1302011/
___________________________________________________________________________________

Any Queries Shud B Put Forth In The Comment Section. I will Try To Answer It As 

Soon As Possible
___________________________________________________________________________________

Note:

This Is Real Half Side-By-Side 3D.

Language : English

3D Type  : Stereoscopic 3D

To watch It In Anaglyph [Red-Blue], Download Stereoscopic Player
___________________________________________________________________________________

Format                                   : Matroska
Format version                           : Version 2
File size                                : 1.85 GiB
Duration                                 : 1h 30mn
Overall bit rate                         : 2 928 Kbps
Encoded date                             : UTC 2012-05-22 11:06:00
Writing application                      : Lavf53.31.100
Writing library                          : Lavf53.31.100

Video
ID                                       : 1
Format                                   : AVC
Format/Info                              : Advanced Video Codec
Format profile                           : High@L4.1
Format settings, CABAC                   : Yes
Format settings, ReFrames                : 2 frames
Codec ID                                 : V_MPEG4/ISO/AVC
Duration                                 : 1h 30mn
Bit rate                                 : 2 500 Kbps
Width                                    : 1 920 pixels
Height                                   : 1 080 pixels
Display aspect ratio                     : 16:9
Frame rate mode                          : Variable
Frame rate                               : 23.976 fps
Color space                              : YUV
Chroma subsampling                       : 4:2:0
Bit depth                                : 8 bits
Scan type                                : Progressive
Bits/(Pixel*Frame)                       : 0.050
Stream size                              : 1.53 GiB (83%)
Writing library                          : x264 core 120 r2146
Language                                 : English

Audio
ID                                       : 2
Format                                   : AC-3
Format/Info                              : Audio Coding 3
Mode extension                           : CM (complete main)
Codec ID                                 : A_AC3
Duration                                 : 1h 30mn
Bit rate mode                            : Constant
Bit rate                                 : 448 Kbps
Channel(s)                               : 6 channels
Channel positions                        : Front: L C R, Side: L R, LFE
Sampling rate                            : 48.0 KHz
Bit depth                                : 16 bits
Compression mode                         : Lossy
Stream size                              : 290 MiB (15%)
Language                                 : English
___________________________________________________________________________________

Subtitles: English

Type     : External

Extention: SRT File
___________________________________________________________________________________

- Nexus Wolf
___________________________________________________________________________________				